<svg width="250" height="250" viewBox="0 0 250 250" fill="none" xmlns="http://www.w3.org/2000/svg">
<rect width="250" height="250" rx="4" fill="white"/>
<mask id="mask0_2091_52" style="mask-type:alpha" maskUnits="userSpaceOnUse" x="84" y="87" width="75" height="75">
<path d="M84 120.333C84 104.621 84 96.7625 88.8833 91.8833C93.7625 87 101.621 87 117.333 87H125.667C141.379 87 149.237 87 154.117 91.8833C159 96.7625 159 104.621 159 120.333V128.667C159 144.379 159 152.237 154.117 157.117C149.237 162 141.379 162 125.667 162H117.333C101.621 162 93.7625 162 88.8833 157.117C84 152.237 84 144.379 84 128.667V120.333Z" fill="#273B4A"/>
</mask>
<g mask="url(#mask0_2091_52)">
<path d="M94.0415 126.958L93.404 127.596C89.3206 131.679 87.279 133.721 86.054 136.233C85.6287 137.104 85.2801 138.01 85.0123 138.942C84.2415 141.625 84.3956 144.512 84.6998 150.283L86.0831 176.583H159V156.821C159 150.775 159 147.75 158.004 145.004C157.733 144.253 157.409 143.522 157.033 142.817C155.658 140.237 153.408 138.217 148.908 134.171L148.016 133.367C144.283 130.004 142.416 128.325 140.283 127.85C138.944 127.55 137.551 127.586 136.229 127.954C134.125 128.542 132.346 130.321 128.796 133.871C126.158 136.508 124.841 137.825 123.429 138.004C122.551 138.114 121.661 137.942 120.887 137.512C119.637 136.821 118.891 135.083 117.404 131.604C114.233 124.208 112.65 120.512 109.925 119.146C108.553 118.458 107.017 118.162 105.487 118.292C102.45 118.55 99.6498 121.354 94.0415 126.958Z" fill="black" fill-opacity="0.25" stroke="black"/>
</g>
<path d="M84 120.333C84 104.621 84 96.7625 88.8833 91.8833C93.7625 87 101.621 87 117.333 87H125.667C141.379 87 149.237 87 154.117 91.8833C159 96.7625 159 104.621 159 120.333V128.667C159 144.379 159 152.237 154.117 157.117C149.237 162 141.379 162 125.667 162H117.333C101.621 162 93.7625 162 88.8833 157.117C84 152.237 84 144.379 84 128.667V120.333Z" stroke="black" stroke-width="1.2"/>
<path d="M140.25 112C143.702 112 146.5 109.202 146.5 105.75C146.5 102.298 143.702 99.5 140.25 99.5C136.798 99.5 134 102.298 134 105.75C134 109.202 136.798 112 140.25 112Z" fill="black"/>
</svg>
